<svg id="Layer_1" data-name="Layer 1" xmlns="http://www.w3.org/2000/svg" viewBox="0 0 135.08 51.42"><defs><style>.cls-1{fill:#fff;}</style></defs><title>logo_white</title><path class="cls-1" d="M602.55,537.4c-3.9,0-7.81,0-11.72,0-1.29,0-1.79-.33-1.78-1.71q.09-11.94,0-23.9c0-1.27.42-1.64,1.67-1.64q12,.07,23.9,0c1.22,0,1.69.31,1.69,1.62q-.09,12,0,24.05c0,1.21-.39,1.59-1.58,1.58C610.67,537.36,606.61,537.4,602.55,537.4Zm6-15.4c.48-.45,1.09-1,1.66-1.54,2.52-2.45,2.49-2.41-.26-4.73-4.84-4.09-12.8-2.68-15.48,2.73a13.55,13.55,0,0,0-1.34,7.08c.31,4.47,2.43,7.83,6.57,9.64,4,1.74,7.53.69,10.71-2,2.29-1.95,2.27-2,.11-4.08-1.79-1.74-1.79-1.74-3.77-.25-3.07,2.31-6.55,1.16-7.34-2.57a9,9,0,0,1,.24-4,3.86,3.86,0,0,1,5.3-2.62A22,22,0,0,1,608.56,522Z" transform="translate(-572.06 -486)"/><path class="cls-1" d="M706,532c-4.29,4.83-13.56,4.46-16.11-2.63a13.74,13.74,0,0,1,.37-10.66,8.66,8.66,0,0,1,9.18-5.06,9.07,9.07,0,0,1,7.34,7.74c.13,1,.2,2,.31,3s-.31,1.44-1.38,1.43c-3.3,0-6.59,0-9.89,0-1.6,0-1.86.48-1.18,2a4.77,4.77,0,0,0,6.88,1.8,1.45,1.45,0,0,1,2.18.25C704.47,530.57,705.26,531.26,706,532Zm-11.5-10h7.27c0-2.43-1.32-3.78-3.48-3.85C696,518,694.73,519.25,694.53,522Z" transform="translate(-572.06 -486)"/><path class="cls-1" d="M619.41,524.29c0-4.39,1.44-7.9,5.56-9.87a9.06,9.06,0,0,1,12.31,5.45,15.82,15.82,0,0,1,0,9.29c-1.15,3.85-4.58,6.13-9,6.07a9,9,0,0,1-8.33-7A33.59,33.59,0,0,1,619.41,524.29Zm13.51.55c-.22-1.32-.28-2.23-.52-3.1a3.84,3.84,0,0,0-7.42-.29,8.74,8.74,0,0,0,.3,6.66,3.51,3.51,0,0,0,3.19,2.22,3.26,3.26,0,0,0,3.3-2A28.38,28.38,0,0,0,632.92,524.84Z" transform="translate(-572.06 -486)"/><path class="cls-1" d="M659.29,527.46c0,2.13,0,4.26,0,6.39,0,1-.28,1.4-1.3,1.38-4.39-.09-3.57.52-3.63-3.45,0-2.89,0-5.79,0-8.68,0-2.72-1.52-4.35-4-4.35s-3.88,1.53-3.89,4.38c0,3.5,0,7,0,10.51,0,1.17-.32,1.63-1.55,1.59-4-.11-3.38.5-3.42-3.36,0-5.23,0-10.46-.06-15.69,0-1.3.35-2,1.71-1.73s2.66-.66,3.62.82c.06.1.82-.17,1.21-.37a7.94,7.94,0,0,1,5.29-.93,7.14,7.14,0,0,1,6,7.24c.06,2.08,0,4.16,0,6.25Z" transform="translate(-572.06 -486)"/><path class="cls-1" d="M675.12,510.55a13.32,13.32,0,0,0-2.47,0c-1.27.29-2.15,2.51-1.33,3.48a2.44,2.44,0,0,0,1.8.39c1.37-.11,1.88.43,1.7,1.75a7.63,7.63,0,0,0,0,1.07c0,2.07,0,2.15-2.07,2.07-1.31,0-1.62.45-1.61,1.68.06,4.21,0,8.43,0,12.64,0,1.19-.35,1.62-1.57,1.59-4-.12-3.39.51-3.42-3.38,0-3.55,0-7.11,0-10.67,0-1.15-.13-2.06-1.62-1.83a.6.6,0,0,1-.3,0c-1.6-.89-.45-2.37-.74-3.54-.17-.68,0-1.42,1-1.31,1.42.16,1.78-.59,1.67-1.81,0-.2,0-.4,0-.61-.41-5.77,3.87-6.28,7.49-5.63a1.51,1.51,0,0,1,1.46,1.87C675.06,509,675.12,509.72,675.12,510.55Z" transform="translate(-572.06 -486)"/><path class="cls-1" d="M578.84,493.38c1.78,0,3.55,0,5.32,0,1,0,1.37.32,1.36,1.33,0,3.54,0,7.09,0,10.64,0,.89-.3,1.29-1.23,1.28q-5.47,0-10.95,0c-.89,0-1.28-.31-1.27-1.24q0-5.4,0-10.8c0-.95.45-1.22,1.31-1.21C575.19,493.4,577,493.38,578.84,493.38Z" transform="translate(-572.06 -486)"/><path class="cls-1" d="M679.58,524.68c0-2.89,0-5.78,0-8.66,0-1.18.38-1.61,1.58-1.58,4.07.1,3.39-.49,3.42,3.33,0,5.27,0,10.54,0,15.81,0,1.24-.34,1.7-1.63,1.66-3.86-.12-3.34.51-3.38-3.42C679.57,529.44,679.58,527.06,679.58,524.68Z" transform="translate(-572.06 -486)"/><path class="cls-1" d="M611.67,497.39c1.12,0,2.24,0,3.35,0,.9,0,1.3.29,1.28,1.23,0,2.28,0,4.57,0,6.85,0,.86-.38,1.17-1.2,1.16q-3.44,0-6.85,0c-.82,0-1.23-.32-1.22-1.16q0-3.43,0-6.85c0-.93.42-1.26,1.31-1.23C609.44,497.42,610.56,497.39,611.67,497.39Z" transform="translate(-572.06 -486)"/><path class="cls-1" d="M596.17,495.8c0,3.48,0,3.48-3.55,3.48s-3.54,0-3.54-3.51,0-3.55,3.48-3.55S596.16,492.22,596.17,495.8Z" transform="translate(-572.06 -486)"/><path class="cls-1" d="M684.57,509.3c0,2.49,0,2.49-2.43,2.49s-2.56,0-2.56-2.54,0-2.41,2.84-2.4C684.57,506.85,684.57,506.85,684.57,509.3Z" transform="translate(-572.06 -486)"/><path class="cls-1" d="M601.93,502.87c1.5-.38,1.52.66,1.59,1.94.09,1.55-.55,1.84-1.94,1.85s-2-.44-1.93-1.92C599.76,502.91,599.72,502.87,601.93,502.87Z" transform="translate(-572.06 -486)"/><path class="cls-1" d="M585.46,488.07c.43,1.68-.6,1.7-1.89,1.77-1.51.08-1.94-.5-1.86-1.93.11-1.82.1-1.8,2.06-1.9C585.39,485.92,585.72,486.68,585.46,488.07Z" transform="translate(-572.06 -486)"/></svg>