<svg id="Layer_1" data-name="Layer 1" xmlns="http://www.w3.org/2000/svg" viewBox="0 0 244.8 93.19"><defs><style>.cls-1{fill:#fb8815;}</style></defs><title>logo_orange_Login</title><path class="cls-1" d="M572.46,558.83c-7.08,0-14.16-.07-21.24,0-2.34,0-3.24-.6-3.22-3.09q.15-21.66,0-43.32c0-2.31.78-3,3-3q21.65.12,43.31,0c2.21,0,3.07.56,3,2.93q-.14,21.8,0,43.59c0,2.18-.71,2.88-2.87,2.85C587.18,558.77,579.82,558.83,572.46,558.83Zm10.88-27.9c.88-.81,2-1.78,3-2.79,4.57-4.44,4.5-4.37-.47-8.57-8.78-7.42-23.2-4.86-28,4.94a24.51,24.51,0,0,0-2.44,12.84c.57,8.11,4.41,14.18,11.91,17.48,7.17,3.15,13.65,1.24,19.41-3.65,4.16-3.54,4.12-3.59.19-7.4-3.24-3.15-3.24-3.15-6.83-.45-5.55,4.19-11.86,2.11-13.29-4.65a16.21,16.21,0,0,1,.43-7.28,7,7,0,0,1,9.6-4.75C579,527.55,580.9,529.29,583.34,530.93Z" transform="translate(-517.2 -465.69)"/><path class="cls-1" d="M760,549c-7.77,8.76-24.58,8.09-29.19-4.77a24.93,24.93,0,0,1,.66-19.31,15.72,15.72,0,0,1,16.65-9.18,16.45,16.45,0,0,1,13.29,14c.24,1.82.37,3.65.57,5.47s-.57,2.62-2.51,2.6c-6-.09-12-.06-17.92,0-2.91,0-3.38.87-2.14,3.56,2.06,4.46,8,6.15,12.47,3.26,1.75-1.11,2.71-.78,3.94.47S758.6,547.71,760,549Zm-20.84-18.16h13.17c-.08-4.39-2.39-6.85-6.3-7C741.75,523.74,739.5,526,739.15,530.84Z" transform="translate(-517.2 -465.69)"/><path class="cls-1" d="M603,535.09c-.08-8,2.61-14.33,10.08-17.89,8.62-4.11,19.54.76,22.31,9.87a28.68,28.68,0,0,1,0,16.84c-2.09,7-8.31,11.11-16.28,11-6.91-.09-13.17-5.29-15.1-12.75A61.22,61.22,0,0,1,603,535.09Zm24.48,1c-.39-2.4-.51-4.05-.94-5.62-.95-3.54-3.16-5.34-6.37-5.42-3.6-.09-5.91,1.41-7.08,4.89a15.84,15.84,0,0,0,.55,12.07,6.34,6.34,0,0,0,5.78,4,5.92,5.92,0,0,0,6-3.58A52,52,0,0,0,627.49,536.09Z" transform="translate(-517.2 -465.69)"/><path class="cls-1" d="M675.28,540.82c0,3.87,0,7.73,0,11.6,0,1.72-.51,2.52-2.36,2.48-8-.15-6.47.94-6.58-6.23-.07-5.25,0-10.5,0-15.74,0-4.94-2.76-7.89-7.21-7.89s-7,2.79-7.06,7.94c0,6.35-.07,12.7,0,19,0,2.12-.58,3-2.81,2.9-7.3-.21-6.13.89-6.2-6.1-.09-9.47,0-19-.11-28.43,0-2.36.64-3.57,3.11-3.14,2.18.38,4.81-1.2,6.55,1.49.11.18,1.49-.31,2.18-.67a14.49,14.49,0,0,1,9.59-1.69c6.56,1.32,10.62,6.23,10.81,13.13.1,3.77,0,7.54,0,11.31Z" transform="translate(-517.2 -465.69)"/><path class="cls-1" d="M704,510.18a22.38,22.38,0,0,0-4.46.05c-2.31.51-3.91,4.55-2.41,6.3.58.68,2.16.8,3.25.71,2.48-.21,3.4.78,3.08,3.17a15.53,15.53,0,0,0,0,1.93c0,3.76,0,3.9-3.75,3.76-2.37-.08-2.95.81-2.91,3,.1,7.64,0,15.29.08,22.93,0,2.15-.64,2.93-2.84,2.86-7.16-.2-6.15.93-6.2-6.11q-.07-9.67,0-19.34c0-2.08-.23-3.74-2.94-3.32a1,1,0,0,1-.55,0c-2.89-1.6-.81-4.28-1.33-6.42-.31-1.23,0-2.56,1.77-2.37,2.58.29,3.22-1.06,3-3.27,0-.36,0-.74,0-1.1-.75-10.46,7-11.39,13.57-10.22,2,.37,2.82,1.38,2.64,3.4C703.87,507.39,704,508.68,704,510.18Z" transform="translate(-517.2 -465.69)"/><path class="cls-1" d="M529.49,479.07c3.22,0,6.43.06,9.65,0,1.74,0,2.47.58,2.45,2.4-.07,6.43-.06,12.86,0,19.29,0,1.62-.54,2.34-2.23,2.33q-9.92-.07-19.84,0c-1.61,0-2.32-.57-2.31-2.25q.07-9.79,0-19.57c0-1.73.81-2.22,2.37-2.19C522.88,479.11,526.19,479.07,529.49,479.07Z" transform="translate(-517.2 -465.69)"/><path class="cls-1" d="M712.06,535.79c0-5.23.07-10.46,0-15.7,0-2.13.68-2.92,2.87-2.86,7.36.19,6.13-.88,6.18,6,.07,9.55,0,19.1.06,28.64,0,2.25-.62,3.09-3,3-7-.22-6.06.93-6.12-6.19C712,544.42,712.06,540.11,712.06,535.79Z" transform="translate(-517.2 -465.69)"/><path class="cls-1" d="M589,486.34c2,0,4,.06,6.07,0,1.62-.06,2.34.52,2.32,2.23-.07,4.13-.06,8.27,0,12.41,0,1.56-.69,2.12-2.17,2.1q-6.21,0-12.42,0c-1.47,0-2.22-.58-2.21-2.11,0-4.13,0-8.27,0-12.41,0-1.68.76-2.27,2.37-2.22C585,486.39,587,486.34,589,486.34Z" transform="translate(-517.2 -465.69)"/><path class="cls-1" d="M560.89,483.45c0,6.32,0,6.32-6.43,6.32s-6.42,0-6.41-6.37,0-6.44,6.31-6.44C560.89,477,560.89,477,560.89,483.45Z" transform="translate(-517.2 -465.69)"/><path class="cls-1" d="M721.09,507.92c0,4.52,0,4.52-4.4,4.52-4.64,0-4.64,0-4.64-4.61,0-4.36,0-4.36,5.14-4.36C721.09,503.47,721.09,503.47,721.09,507.92Z" transform="translate(-517.2 -465.69)"/><path class="cls-1" d="M571.33,496.28c2.72-.71,2.76,1.17,2.89,3.5.16,2.81-1,3.35-3.53,3.36s-3.63-.8-3.48-3.48C567.39,496.35,567.33,496.26,571.33,496.28Z" transform="translate(-517.2 -465.69)"/><path class="cls-1" d="M541.48,469.44c.79,3.05-1.09,3.09-3.41,3.21-2.74.15-3.53-.9-3.38-3.49.19-3.31.19-3.26,3.73-3.45C541.36,465.55,542,466.93,541.48,469.44Z" transform="translate(-517.2 -465.69)"/></svg>